<svg width="24" height="24" viewBox="0 0 24 24" fill="none" xmlns="http://www.w3.org/2000/svg">
<g id="Group">
<path id="Vector" opacity="0.01" d="M0 0H24V24H0V0Z" fill="#F5F7FA"/>
<path id="Vector 3" d="M6.78125 7.73462V7.11523C6.78125 6.56295 7.22897 6.11523 7.78125 6.11523H12.1556C12.7078 6.11523 13.1556 6.56295 13.1556 7.11523V9.9734C13.1556 10.5257 12.7078 10.9734 12.1556 10.9734H7.78125C7.22897 10.9734 6.78125 11.4211 6.78125 11.9734V14.0219C6.78125 14.5742 7.22897 15.0219 7.78125 15.0219H13.1556" stroke="#1A91FF" stroke-width="1.8" stroke-linecap="round" stroke-linejoin="round"/>
<path id="Vector_2" d="M15.5459 7.73462V6.92493C15.5459 6.47775 15.9026 6.11523 16.3427 6.11523H21.1234C21.5635 6.11523 21.9202 6.47775 21.9202 6.92493V8.94916C21.9202 9.84353 21.2067 10.5685 20.3266 10.5685M20.3266 10.5685H17.1395M20.3266 10.5685C21.2067 10.5685 21.9202 11.2936 21.9202 12.1879V14.2122C21.9202 14.6594 21.5635 15.0219 21.1234 15.0219H16.3427C15.9026 15.0219 15.5459 14.6594 15.5459 14.2122V13.4025" stroke="#1A91FF" stroke-width="1.8" stroke-linecap="round" stroke-linejoin="round"/>
<path id="Vector 2" d="M2 6.11523H2.99197C3.54426 6.11523 3.99197 6.56295 3.99197 7.11523V15.0219" stroke="#1A91FF" stroke-width="1.8" stroke-linecap="round" stroke-linejoin="round"/>
<path id="Vector 1" d="M3.35547 18.4229H22.0003" stroke="#1A91FF" stroke-width="1.8" stroke-linecap="round" stroke-linejoin="round"/>
</g>
</svg>
