<svg width="24" height="24" viewBox="0 0 24 24" fill="none" xmlns="http://www.w3.org/2000/svg">
<g id="Frame">
<path id="Vector" d="M19.3337 4.08301H4.66699C4.11471 4.08301 3.66699 4.53072 3.66699 5.08301V13.9163C3.66699 14.4686 4.11471 14.9163 4.66699 14.9163H19.3337C19.886 14.9163 20.3337 14.4686 20.3337 13.9163V5.08301C20.3337 4.53072 19.886 4.08301 19.3337 4.08301Z" stroke="#6146FE" stroke-width="1.5" stroke-linecap="round" stroke-linejoin="round"/>
<path id="Vector_2" d="M6.16667 18.667H4.5" stroke="#6146FE" stroke-width="1.5" stroke-linecap="round" stroke-linejoin="round"/>
<path id="Vector_3" d="M9.5 18.667H19.5" stroke="#6146FE" stroke-width="1.5" stroke-linecap="round" stroke-linejoin="round"/>
<path id="Vector_4" d="M9.08301 18.667C9.08301 19.3574 8.52338 19.917 7.83301 19.917C7.14263 19.917 6.58301 19.3574 6.58301 18.667C6.58301 17.9766 7.14263 17.417 7.83301 17.417C8.52338 17.417 9.08301 17.9766 9.08301 18.667Z" stroke="#6146FE" stroke-width="1.2" stroke-linecap="round" stroke-linejoin="round"/>
<path id="Vector 4" d="M9.5 7V12" stroke="#6146FE" stroke-width="1.3" stroke-linecap="round" stroke-linejoin="round"/>
<path id="Vector_5" d="M12.0225 7.22137C12.0225 7.05408 12.2156 6.96072 12.3467 7.06464L15.1405 9.27923C15.2399 9.35805 15.2418 9.50834 15.1443 9.58958L12.3505 11.9187C12.2203 12.0273 12.0225 11.9347 12.0225 11.7651V7.22137Z" stroke="#6146FE" stroke-width="1.3" stroke-linecap="round" stroke-linejoin="round"/>
</g>
</svg>
