<svg width="24" height="24" viewBox="0 0 24 24" fill="none" xmlns="http://www.w3.org/2000/svg">
<g id="Group">
<path id="aa" d="M10.0904 9.66082C9.39419 8.99107 8.38153 8.66699 7.07351 8.66699C5.87098 8.66699 4.92162 8.96946 4.22541 9.5528C3.62896 10.0558 3.33821 10.6914 3.21894 11.3931C3.13499 11.8871 3.55562 12.2966 4.05664 12.2966C4.55765 12.2966 4.91431 11.8744 5.07812 11.4009C5.15796 11.1701 5.29142 10.9602 5.51233 10.7843C5.87098 10.4818 6.41951 10.3306 7.09461 10.3306C7.81191 10.3306 8.36044 10.5034 8.74018 10.8707C9.11993 11.238 9.3098 11.7781 9.3098 12.5127V12.7164H6.63048C5.44904 12.7164 4.52077 13.0188 3.84567 13.6022C3.17056 14.2071 2.83301 15.0281 2.83301 16.0651C2.83301 17.167 3.17056 18.0312 3.82457 18.6361C4.49967 19.2195 5.40685 19.5003 6.58828 19.5003C7.30558 19.5003 7.9174 19.3923 8.42373 19.1763C8.76128 19.025 9.05664 18.809 9.3309 18.5497L9.33042 18.5713C9.31911 19.081 9.72923 19.5003 10.2391 19.5003C10.74 19.5003 11.1465 19.0951 11.148 18.5942L11.1663 12.5343C11.1663 11.2812 10.8077 10.309 10.0904 9.66082ZM8.71908 17.275C8.33934 17.6855 7.70643 17.88 6.82035 17.88C5.36465 17.88 4.68955 17.2966 4.68955 16.0435C4.68955 14.8121 5.38575 14.2287 6.84145 14.2287H9.3098V15.4386C9.3098 16.2812 9.11993 16.8861 8.71908 17.275Z" fill="#1A91FF"/>
<path id="aa_2" d="M20.0904 9.66082C19.3942 8.99107 18.3815 8.66699 17.0735 8.66699C15.871 8.66699 14.9216 8.96946 14.2254 9.5528C13.629 10.0558 13.3382 10.6914 13.2189 11.3931C13.135 11.8871 13.5556 12.2966 14.0566 12.2966C14.5577 12.2966 14.9143 11.8744 15.0781 11.4009C15.158 11.1701 15.2914 10.9602 15.5123 10.7843C15.871 10.4818 16.4195 10.3306 17.0946 10.3306C17.8119 10.3306 18.3604 10.5034 18.7402 10.8707C19.1199 11.238 19.3098 11.7781 19.3098 12.5127V12.7164H16.6305C15.449 12.7164 14.5208 13.0188 13.8457 13.6022C13.1706 14.2071 12.833 15.0281 12.833 16.0651C12.833 17.167 13.1706 18.0312 13.8246 18.6361C14.4997 19.2195 15.4068 19.5003 16.5883 19.5003C17.3056 19.5003 17.9174 19.3923 18.4237 19.1763C18.7613 19.025 19.0566 18.809 19.3309 18.5497V18.5826C19.3309 19.0894 19.7418 19.5003 20.2486 19.5003C20.7555 19.5003 21.1663 19.0894 21.1663 18.5826V12.5343C21.1663 11.2812 20.8077 10.309 20.0904 9.66082ZM18.7191 17.275C18.3393 17.6855 17.7064 17.88 16.8204 17.88C15.3647 17.88 14.6895 17.2966 14.6895 16.0435C14.6895 14.8121 15.3858 14.2287 16.8414 14.2287H19.3098V15.4386C19.3098 16.2812 19.1199 16.8861 18.7191 17.275Z" fill="#1A91FF"/>
<path id="&#231;&#155;&#180;&#231;&#186;&#191; 4" d="M9.91699 4.5L7.00033 6.58333L4.08366 4.5" stroke="#1A91FF" stroke-width="1.8" stroke-linecap="round" stroke-linejoin="round"/>
<path id="&#231;&#155;&#180;&#231;&#186;&#191; 5" d="M14.5 5.54167H19.5" stroke="#1A91FF" stroke-width="1.8" stroke-linecap="round"/>
</g>
</svg>
