<svg width="24" height="24" viewBox="0 0 24 24" fill="none" xmlns="http://www.w3.org/2000/svg">
<g id="&#231;&#188;&#150;&#231;&#187;&#132; 20">
<circle id="&#230;&#164;&#173;&#229;&#156;&#134;&#229;&#189;&#162;" cx="12" cy="12" r="11" fill="#1A91FF" stroke="#1A91FF" stroke-width="1.8"/>
<path id="&#229;&#189;&#162;&#231;&#138;&#182;&#231;&#187;&#147;&#229;&#144;&#136;" fill-rule="evenodd" clip-rule="evenodd" d="M9.11255 8.15834V8.15836V8.15853V15.711C9.11255 15.7113 9.11255 15.7116 9.11255 15.712C9.11308 16.2308 9.53776 16.6363 10.0567 16.6552C10.2394 16.6621 10.4137 16.6076 10.5618 16.5094L10.5618 16.51L16.2411 12.7379L16.2409 12.7377C16.5011 12.5704 16.6688 12.2717 16.6658 11.9346C16.6629 11.6215 16.5091 11.3428 16.2736 11.1708L16.2742 11.1704L16.2573 11.1591C16.2462 11.1513 16.2348 11.1438 16.2233 11.1364L10.6015 7.38707C10.5782 7.37056 10.5539 7.35504 10.5289 7.34056C10.2367 7.17188 9.87677 7.17188 9.58462 7.34056C9.29247 7.50925 9.11252 7.82099 9.11255 8.15834Z" fill="white"/>
</g>
</svg>
