<svg width="32" height="32" viewBox="0 0 32 32" fill="none" xmlns="http://www.w3.org/2000/svg">
<g id="Group 1970">
<rect id="&#231;&#159;&#169;&#229;&#189;&#162;" opacity="0.08" x="0.75" y="0.75" width="30.5" height="30.5" rx="15.25" fill="#1A91FF" stroke="#1A91FF" stroke-width="1.5"/>
<path id="Vector" fill-rule="evenodd" clip-rule="evenodd" d="M12.7 10C11.883 10 11.2 10.683 11.2 11.5V20.5C11.2 21.317 11.883 22 12.7 22C13.517 22 14.2 21.317 14.2 20.5V11.5C14.2 10.683 13.517 10 12.7 10ZM19.3 10C18.483 10 17.8 10.683 17.8 11.5V20.5C17.8 21.317 18.483 22 19.3 22C20.117 22 20.8 21.317 20.8 20.5V11.5C20.8 10.6869 20.1047 10 19.3 10Z" fill="#1A91FF"/>
</g>
</svg>
