<svg width="24" height="24" viewBox="0 0 24 24" fill="none" xmlns="http://www.w3.org/2000/svg">
<g id="Group 427319962">
<path id="Vector" opacity="0.01" d="M23.5 23.5V0.5H0.5V23.5H23.5Z" fill="#22232B" stroke="#1B2337"/>
<path id="Union" fill-rule="evenodd" clip-rule="evenodd" d="M16.0001 5.13959C15.7072 4.8467 15.2323 4.8467 14.9394 5.13959C14.6465 5.43248 14.6465 5.90736 14.9394 6.20025L16.9395 8.20036H9.75C6.85049 8.20036 4.5 10.5509 4.5 13.4503C4.5 16.3499 6.85049 18.7003 9.75 18.7003H14.0735C14.4877 18.7003 14.8235 18.3646 14.8235 17.9503C14.8235 17.5361 14.4877 17.2003 14.0735 17.2003H9.75C7.67891 17.2003 6 15.5214 6 13.4503C6 11.3793 7.67891 9.70036 9.75 9.70036H16.9386L14.9394 11.6996C14.6465 11.9925 14.6465 12.4674 14.9394 12.7603C15.2323 13.0532 15.7072 13.0532 16.0001 12.7603L19.2801 9.48027C19.5729 9.18738 19.5729 8.71251 19.2801 8.41961L16.0001 5.13959Z" fill="#22232B"/>
</g>
</svg>
