<svg width="24" height="24" viewBox="0 0 24 24" fill="none" xmlns="http://www.w3.org/2000/svg">
<g id="Frame" clip-path="url(#clip0_6544_48762)">
<path id="Vector" d="M14.624 10.6581C14.624 10.6581 13.2784 14.4507 12.639 15.1128C11.9996 15.775 10.9445 15.7934 10.2824 15.154C9.6202 14.5145 9.60179 13.4595 10.2412 12.7973C10.8806 12.1352 14.624 10.6581 14.624 10.6581Z" stroke="#00C684" stroke-width="1.5" stroke-linejoin="round"/>
<path id="Vector_2" d="M18.1872 19.0202C19.7706 17.4368 20.75 15.2493 20.75 12.833C20.75 8.00051 16.8325 4.08301 12 4.08301C7.1675 4.08301 3.25 8.00051 3.25 12.833C3.25 15.2493 4.22938 17.4368 5.81282 19.0202" stroke="#00C684" stroke-width="1.5" stroke-linecap="round" stroke-linejoin="round"/>
<path id="Vector_3" d="M12 4.5V6.16667" stroke="#00C684" stroke-width="1.5" stroke-linecap="round" stroke-linejoin="round"/>
<path id="Vector_4" d="M18.1859 7.47656L16.8906 8.5254" stroke="#00C684" stroke-width="1.5" stroke-linecap="round" stroke-linejoin="round"/>
<path id="Vector_5" d="M19.7177 14.1796L18.0938 13.8047" stroke="#00C684" stroke-width="1.5" stroke-linecap="round" stroke-linejoin="round"/>
<path id="Vector_6" d="M4.28223 14.1796L5.90618 13.8047" stroke="#00C684" stroke-width="1.5" stroke-linecap="round" stroke-linejoin="round"/>
<path id="Vector_7" d="M5.81445 7.47656L7.10969 8.52544" stroke="#00C684" stroke-width="1.5" stroke-linecap="round" stroke-linejoin="round"/>
</g>
<defs>
<clipPath id="clip0_6544_48762">
<rect width="24" height="24" fill="white"/>
</clipPath>
</defs>
</svg>
