<svg width="24" height="24" viewBox="0 0 24 24" fill="none" xmlns="http://www.w3.org/2000/svg">
<g id="Group">
<path id="Union" fill-rule="evenodd" clip-rule="evenodd" d="M9.06033 6.20025C9.35323 5.90736 9.35323 5.43248 9.06033 5.13959C8.76744 4.8467 8.29256 4.8467 7.99967 5.13959L4.71967 8.41961C4.42678 8.71251 4.42678 9.18738 4.71967 9.48027L7.99967 12.7603C8.29257 13.0532 8.76744 13.0532 9.06033 12.7603C9.35323 12.4674 9.35323 11.9925 9.06033 11.6996L7.06092 9.7002H14.25C16.3211 9.7002 18 11.3791 18 13.4502C18 15.5213 16.3211 17.2002 14.25 17.2002H9.9265C9.51229 17.2002 9.1765 17.536 9.1765 17.9502C9.1765 18.3644 9.51229 18.7002 9.9265 18.7002H14.25C17.1495 18.7002 19.5 16.3497 19.5 13.4502C19.5 10.5507 17.1495 8.2002 14.25 8.2002H7.0604L9.06033 6.20025Z" fill="#1B2337"/>
</g>
</svg>
