<svg width="24" height="24" viewBox="0 0 24 24" fill="none" xmlns="http://www.w3.org/2000/svg">
<g id="&#229;&#143;&#140;&#228;&#186;&#186;&#230;&#168;&#161;&#229;&#188;&#143;">
<ellipse id="Oval 2" cx="10.4545" cy="7.92765" rx="3.39395" ry="3.42765" stroke="#00C684" stroke-width="1.5" stroke-linecap="round" stroke-linejoin="round"/>
<path id="Rectangle 5" fill-rule="evenodd" clip-rule="evenodd" d="M3.66699 17.5583C3.66699 15.5332 5.30862 13.8916 7.33366 13.8916L13.5761 13.8916C15.6011 13.8916 17.2428 15.5332 17.2428 17.5583V18.1255C17.2428 18.8849 16.6272 19.5005 15.8678 19.5005H5.04199C4.2826 19.5005 3.66699 18.8849 3.66699 18.1255L3.66699 17.5583Z" stroke="#00C684" stroke-width="1.5" stroke-linecap="round" stroke-linejoin="round"/>
<path id="Vector" d="M16.502 5.12305C17.3382 5.63196 17.8975 6.55797 17.8975 7.61589C17.8975 8.67381 17.3382 9.59981 16.502 10.1087" stroke="#00C684" stroke-width="1.5" stroke-linecap="round" stroke-linejoin="round"/>
<path id="Vector_2" d="M20.333 17.4385C20.2883 16.1467 20.2204 14.8772 19.5871 13.7232C19.2501 13.1093 18.7294 12.6189 18.0995 12.3223" stroke="#00C684" stroke-width="1.5" stroke-linecap="round" stroke-linejoin="round"/>
</g>
</svg>
